# xmcd
#
# Track frame offsets: 
#        150
#        13104
#        24118
#        38612
#        54110
#        69227
#        84301
#        99555
#        112345
#        127606
#        145294
#        166880
#
# Disc length: 2428 seconds
#
# Revision: 1
# Processed by: cddbd v1.5.2PL0 Copyright (c) Steve Scherf et al.
# Submitted via: ExactAudioCopy v0.95b4
#
DISCID=88097a0c
DTITLE=Eddie Rabbitt - Hits - Disc 3
DYEAR=2003
DGENRE=Country
TTITLE0=Every Which Way But Loose
TTITLE1=Drinkin' My Baby (Off My Mind)
TTITLE2=I Can't Help Myself
TTITLE3=There's Someone She Lies To
TTITLE4=So Fine
TTITLE5=I'm A Little Bit Lonesome
TTITLE6=Hurtin' For You
TTITLE7=Stop, Look And Listen
TTITLE8=Jewelry Store
TTITLE9=I Will Never Let You Go
TTITLE10=I Don't Wanna Make Love With Anyone
TTITLE11=Gone Too Far
EXTD=
EXTT0=
EXTT1=
EXTT2=
EXTT3=
EXTT4=
EXTT5=
EXTT6=
EXTT7=
EXTT8=
EXTT9=
EXTT10=
EXTT11=
PLAYORDER=
